<?xml version="1.0" encoding="UTF-8"?>
<svg width="103px" height="77px" viewBox="0 0 103 77" version="1.1" xmlns="http://www.w3.org/2000/svg" xmlns:xlink="http://www.w3.org/1999/xlink">
    <!-- Generator: Sketch 43.2 (39069) - http://www.bohemiancoding.com/sketch -->
    <title>card</title>
    <desc>Created with Sketch.</desc>
    <defs>
        <polygon id="path-1" points="0 76.1386269 102.452893 76.1386269 102.452893 0.317796008 0 0.317796008"></polygon>
    </defs>
    <g id="Apply" stroke="none" stroke-width="1" fill="none" fill-rule="evenodd">
        <g id="Choose-Product" transform="translate(-878.000000, -385.000000)">
            <g id="Account-3" transform="translate(791.000000, 334.000000)">
                <g id="card" transform="translate(87.000000, 51.000000)">
                    <g id="Page-1">
                        <polygon id="Fill-1" fill="#D70060" points="7.07435189 52.9492974 21.2461206 52.9492974 21.2461206 49.6389224 7.07435189 49.6389224"></polygon>
                        <polygon id="Fill-2" fill="#D70060" points="24.9381613 52.9492974 38.6403934 52.9492974 38.6403934 49.6389224 24.9381613 49.6389224"></polygon>
                        <polygon id="Fill-3" fill="#D70060" points="42.3357291 52.9492974 56.0346662 52.9492974 56.0346662 49.6389224 42.3357291 49.6389224"></polygon>
                        <polygon id="Fill-4" fill="#D70060" points="59.7300018 52.9492974 73.4305864 52.9492974 73.4305864 49.6389224 59.7300018 49.6389224"></polygon>
                        <path d="M9.74659194,42.8874124 L18.6644929,42.8874124 L18.6644929,37.0363244 L9.74659194,37.0363244 L9.74659194,42.8874124 Z M6.45159805,46.1977875 L21.9594868,46.1977875 L21.9594868,33.7259493 L6.45159805,33.7259493 L6.45159805,46.1977875 Z" id="Fill-5" fill="#D70060"></path>
                        <g id="Group-14" transform="translate(0.000000, 0.544405)">
                            <path d="M57.6623932,62.9150026 C57.6623932,60.8940186 56.0264287,59.2504174 54.0148349,59.2504174 C52.0015937,59.2504174 50.3656292,60.8940186 50.3656292,62.9150026 C50.3656292,64.9376418 52.0015937,66.581243 54.0148349,66.581243 C56.0264287,66.581243 57.6623932,64.9376418 57.6623932,62.9150026 Z M47.0706353,62.9150026 C47.0706353,59.0700019 50.186052,55.9400423 54.0148349,55.9400423 C57.8419703,55.9400423 60.9573871,59.0700019 60.9573871,62.9150026 C60.9573871,66.7616584 57.8419703,69.8916181 54.0148349,69.8916181 C50.186052,69.8916181 47.0706353,66.7616584 47.0706353,62.9150026 Z" id="Fill-6" fill="#D70060"></path>
                            <path d="M68.1361903,66.580912 C66.122949,66.580912 64.4869845,64.9373107 64.4869845,62.9146716 C64.4869845,60.8936876 66.122949,59.2500863 68.1361903,59.2500863 C70.147784,59.2500863 71.7837485,60.8936876 71.7837485,62.9146716 C71.7837485,64.9373107 70.147784,66.580912 68.1361903,66.580912 M68.1361903,55.9397113 C64.3074074,55.9397113 61.1919906,59.0696709 61.1919906,62.9146716 C61.1919906,66.7613274 64.3074074,69.891287 68.1361903,69.891287 C71.9633257,69.891287 75.0787424,66.7613274 75.0787424,62.9146716 C75.0787424,59.0696709 71.9633257,55.9397113 68.1361903,55.9397113" id="Fill-8" fill="#D70060"></path>
                            <mask id="mask-2" fill="white">
                                <use xlink:href="#path-1"></use>
                            </mask>
                            <g id="Clip-11"></g>
                            <polygon id="Fill-10" fill="#D70060" mask="url(#mask-2)" points="6.7481475 67.8229647 17.9280618 67.8229647 17.9280618 64.5125896 6.7481475 64.5125896"></polygon>
                            <polygon id="Fill-12" fill="#D70060" mask="url(#mask-2)" points="20.2806874 67.8229647 30.2842889 67.8229647 30.2842889 64.5125896 20.2806874 64.5125896"></polygon>
                            <path d="M98.5409112,19.7637668 L97.280576,25.6661656 L25.2388295,10.1487824 L26.4975172,4.24803882 L98.5409112,19.7637668 Z M89.0463863,64.2518976 L80.27017,62.3616734 L80.27017,33.8113435 L94.8719355,36.9561998 L89.0463863,64.2518976 Z M3.29417015,72.8290794 L76.9751761,72.8290794 L76.9751761,27.3279739 L3.29417015,27.3279739 L3.29417015,72.8290794 Z M22.826894,21.4404718 L34.7893693,24.0159436 L22.2782775,24.0159436 L22.826894,21.4404718 Z M50.5081377,24.0159436 L23.5188427,18.2045802 L24.5485283,13.3846741 L73.9025943,24.0159436 L50.5081377,24.0159436 Z M80.27017,25.3880941 L96.5902748,28.9037124 L95.5622367,33.7203082 L80.27017,30.426485 L80.27017,25.3880941 Z M18.9074987,24.0159436 L-0.000823748474,24.0159436 L-0.000823748474,76.1394545 L80.27017,76.1394545 L80.27017,65.7481871 L91.5785891,68.182968 L102.453716,17.2197436 L23.9653143,0.316968414 L18.9074987,24.0159436 Z" id="Fill-13" fill="#D70060" mask="url(#mask-2)"></path>
                        </g>
                    </g>
                </g>
            </g>
        </g>
    </g>
</svg>