<?xml version="1.0" encoding="UTF-8"?>
<svg width="95px" height="95px" viewBox="0 0 95 95" version="1.1" xmlns="http://www.w3.org/2000/svg" xmlns:xlink="http://www.w3.org/1999/xlink">
    <!-- Generator: Sketch 43.2 (39069) - http://www.bohemiancoding.com/sketch -->
    <title>($)</title>
    <desc>Created with Sketch.</desc>
    <defs>
        <polygon id="path-1" points="95 47.5001583 95 95 0 95 0 47.5001583 0 0.000316666667 95 0.000316666667 95 47.5001583"></polygon>
    </defs>
    <g id="Apply" stroke="none" stroke-width="1" fill="none" fill-rule="evenodd">
        <g id="Choose-Product" transform="translate(-271.000000, -368.000000)">
            <g id="Account1" transform="translate(181.000000, 329.000000)">
                <g id="($)" transform="translate(90.000000, 39.000000)">
                    <g id="Page-1">
                        <path d="M42.071225,60.7171917 C43.0608083,60.9341083 44.308475,61.0433583 45.780975,61.0433583 L46.0865583,61.0433583 L46.0865583,64.889275 L46.403225,64.9541917 C46.7958917,65.0333583 47.1948917,65.0729417 47.5923083,65.0729417 C47.9390583,65.0729417 48.303225,65.0333583 48.6753083,64.9526083 L48.987225,64.8861083 L48.987225,60.7171917 C51.077225,60.305525 52.7555583,59.4489417 53.9810583,58.163275 C55.280975,56.7968583 55.9396417,54.9696917 55.9396417,52.7324417 C55.9396417,51.5481083 55.741725,50.5221083 55.3490583,49.6781917 C54.957975,48.8469417 54.4148917,48.1154417 53.737225,47.504275 C53.067475,46.8978583 52.2583917,46.3658583 51.328975,45.9209417 C50.407475,45.480775 49.424225,45.048525 48.4013917,44.635275 C47.6445583,44.340775 46.9336417,44.0478583 46.2718083,43.7533583 C45.6400583,43.4731083 45.0858917,43.158025 44.6283083,42.8191917 C44.1928917,42.4946083 43.8508917,42.113025 43.6118083,41.6839417 C43.3743083,41.2659417 43.253975,40.7529417 43.253975,40.160775 C43.253975,38.982775 43.6466417,38.0581083 44.4573083,37.329775 C45.263225,36.5998583 46.6533917,36.2293583 48.5913917,36.2293583 C49.471725,36.2293583 50.3758083,36.308525 51.2783083,36.4636917 C52.1903083,36.622025 52.934475,36.797775 53.494975,36.9846083 L53.860725,37.1081083 L53.9921417,36.7439417 C54.117225,36.3956083 54.2248917,36.023525 54.3183083,35.6071083 C54.406975,35.2144417 54.478225,34.8249417 54.5288917,34.4449417 L54.573225,34.1156083 L54.254975,34.0158583 C54.0048083,33.9351083 53.6675583,33.8496083 53.2511417,33.748275 C52.834725,33.6469417 52.3708083,33.558275 51.8673083,33.482275 C51.366975,33.406275 50.8333917,33.344525 50.2728917,33.2954417 C49.8343083,33.2558583 49.405225,33.2321083 48.987225,33.2226083 L48.987225,30.109775 L48.668975,30.0464417 C47.8440583,29.881775 47.0571417,29.8944417 46.3921417,30.048025 L46.0865583,30.1208583 L46.0865583,33.4268583 C44.0978917,33.786275 42.550975,34.5351917 41.4838083,35.653025 C40.3406417,36.845275 39.762725,38.374775 39.762725,40.1956083 C39.762725,41.357775 39.9495583,42.3426083 40.318475,43.1231917 C40.684225,43.8926917 41.1893083,44.5624417 41.8210583,45.1166083 C42.4385583,45.6581083 43.1621417,46.1204417 43.9696417,46.4909417 C44.7391417,46.8471917 45.5513917,47.1828583 46.4523083,47.518525 C47.614475,47.9681917 48.6183083,48.3988583 49.433725,48.7978583 C50.198475,49.176275 50.8001417,49.5689417 51.219725,49.969525 C51.632975,50.3606083 51.9163917,50.7754417 52.0810583,51.237775 C52.250475,51.7111917 52.335975,52.3001917 52.335975,52.990525 C52.335975,54.4139417 51.8403917,55.5586917 50.820725,56.4896917 C49.8026417,57.4143583 48.1575583,57.883025 45.9298083,57.883025 C45.2078083,57.883025 44.5665583,57.8466083 44.0171417,57.7753583 C43.4613917,57.7041083 42.9610583,57.617025 42.517725,57.5236083 C42.0823083,57.4301917 41.6801417,57.3209417 41.3191417,57.2006083 C40.9423083,57.075525 40.5828917,56.9646917 40.2345583,56.8633583 L39.9020583,56.7683583 L39.762725,57.085025 C39.610725,57.4286083 39.4713917,57.826025 39.335225,58.2994417 C39.2038083,58.757025 39.116725,59.1686917 39.064475,59.5581917 L39.0201417,59.8859417 L39.3336417,59.987275 C40.1918083,60.262775 41.1133083,60.509775 42.071225,60.7171917" id="Fill-1" fill="#D70060"></path>
                        <g id="Group-5">
                            <mask id="mask-2" fill="white">
                                <use xlink:href="#path-1"></use>
                            </mask>
                            <g id="Clip-4"></g>
                            <path d="M45.9166667,7.70798333 L45.9166667,16.58415 C30.09125,17.3900667 17.38975,30.0915667 16.5854167,45.9169833 L7.70925,45.9169833 C8.52466667,25.2117333 25.213,8.5234 45.9166667,7.70798333 L45.9166667,7.70798333 Z M87.29075,45.9169833 L78.4145833,45.9169833 C77.61025,30.0915667 64.90875,17.3900667 49.0833333,16.58415 L49.0833333,7.70798333 C69.787,8.5234 86.4753333,25.2117333 87.29075,45.9169833 L87.29075,45.9169833 Z M49.0833333,87.29265 L49.0833333,78.4149 C64.90875,77.6089833 77.61025,64.9090667 78.4145833,49.08365 L87.29075,49.08365 C86.4753333,69.7889 69.787,86.4772333 49.0833333,87.29265 L49.0833333,87.29265 Z M19.7520833,45.9169833 C20.5500833,31.8364 31.8360833,20.5488167 45.9166667,19.7508167 L45.9166667,22.4203167 L49.0833333,22.4203167 L49.0833333,19.7508167 C63.1639167,20.5488167 74.4499167,31.8364 75.2479167,45.9169833 L72.58,45.9169833 L72.58,49.08365 L75.2479167,49.08365 C74.4499167,63.16265 63.1639167,74.4502333 49.0833333,75.2482333 L49.0833333,72.5803167 L45.9166667,72.5803167 L45.9166667,75.2482333 C31.8360833,74.4502333 20.5500833,63.16265 19.7520833,49.08365 L22.42,49.08365 L22.42,45.9169833 L19.7520833,45.9169833 Z M7.70925,49.08365 L16.5854167,49.08365 C17.38975,64.9090667 30.09125,77.6089833 45.9166667,78.4149 L45.9166667,87.29265 C25.213,86.4772333 8.52466667,69.7889 7.70925,49.08365 L7.70925,49.08365 Z M45.9166667,90.4593167 L45.9166667,95.0003167 L49.0833333,95.0003167 L49.0833333,90.4593167 C71.5334167,89.6407333 89.6388333,71.5353167 90.4574167,49.08365 L95,49.08365 L95,45.9169833 L90.4574167,45.9169833 C89.6388333,23.4653167 71.5334167,5.3599 49.0833333,4.54131667 L49.0833333,0.000316666667 L45.9166667,0.000316666667 L45.9166667,4.54131667 C23.4665833,5.3599 5.36116667,23.4653167 4.54258333,45.9169833 L0,45.9169833 L0,49.08365 L4.54258333,49.08365 C5.36116667,71.5353167 23.4665833,89.6407333 45.9166667,90.4593167 L45.9166667,90.4593167 Z" id="Fill-3" fill="#D70060" mask="url(#mask-2)"></path>
                        </g>
                    </g>
                </g>
            </g>
        </g>
    </g>
</svg>