<?xml version="1.0" encoding="UTF-8"?>
<svg width="79px" height="96px" viewBox="0 0 79 96" version="1.1" xmlns="http://www.w3.org/2000/svg" xmlns:xlink="http://www.w3.org/1999/xlink">
    <!-- Generator: Sketch 43.2 (39069) - http://www.bohemiancoding.com/sketch -->
    <title>spend</title>
    <desc>Created with Sketch.</desc>
    <defs>
        <polygon id="path-1" points="78.8216423 0.88815625 0 0.88815625 0 95.4842234 78.8216423 95.4842234"></polygon>
    </defs>
    <g id="Apply" stroke="none" stroke-width="1" fill="none" fill-rule="evenodd">
        <g id="Choose-Product" transform="translate(-591.000000, -376.000000)">
            <g id="Account-2" transform="translate(486.000000, 334.000000)">
                <g id="spend" transform="translate(105.000000, 41.000000)">
                    <g id="Page-1">
                        <g id="Group-3" transform="translate(0.000000, 0.627620)">
                            <mask id="mask-2" fill="white">
                                <use xlink:href="#path-1"></use>
                            </mask>
                            <g id="Clip-2"></g>
                            <path d="M51.86745,3.91925469 C51.2476038,7.16269219 48.6861808,9.71500469 45.4365462,10.3333797 L45.4365462,3.91925469 L51.86745,3.91925469 Z M75.7831808,10.3333797 C72.5335462,9.71500469 69.9721231,7.16269219 69.3507577,3.91925469 L75.7831808,3.91925469 L75.7831808,10.3333797 Z M69.3507577,66.3342078 C69.9721231,63.0907703 72.5335462,60.5354266 75.7831808,59.9170516 L75.7831808,66.3342078 L69.3507577,66.3342078 Z M61.7682769,59.7958016 C63.0945654,57.9406766 64.3448923,52.6663016 62.3258346,49.9609109 C61.6315462,49.0288016 59.96495,47.6298797 56.6104885,48.7741766 C54.8375462,49.3728484 52.9324308,50.7050828 50.9164115,52.1161297 C49.1054885,53.3847078 47.1107385,54.7790828 45.4365462,55.3989734 L45.4365462,13.4040359 C50.3634115,12.7280672 54.2663154,8.83442656 54.9423731,3.91925469 L66.2743154,3.91925469 C66.9518923,8.83442656 70.8547962,12.7280672 75.7831808,13.4040359 L75.7831808,56.8494266 C70.8547962,57.5238797 66.9518923,61.4190359 66.2743154,66.3342078 L56.3051231,66.3342078 C58.0704692,64.6988484 59.5836231,62.8452391 61.7682769,59.7958016 L61.7682769,59.7958016 Z M46.2113538,69.9792859 C41.7584885,72.9741609 35.0905846,77.4588953 24.3860846,85.3401453 L10.0445462,71.0023328 C12.5087385,66.2569109 23.3378154,45.4928484 27.0994308,39.6046453 C30.2624692,34.6546141 37.8267192,29.8152234 42.3980846,28.8300672 L42.3980846,37.7616453 C37.0367192,37.7874109 35.0085462,42.8723328 34.4859308,44.5698328 C33.6047769,47.4040516 35.4050654,51.6144578 37.5836423,54.5290047 C38.7656038,56.1143484 41.1523154,58.7606297 43.8823731,58.7606297 L43.9294692,58.7606297 C46.7476423,58.7363797 49.7542,56.6311766 52.6604885,54.5987234 C54.4136808,53.3725828 56.2246038,52.1040047 57.5873538,51.6432547 C58.7541231,51.2491922 59.5289308,51.2901141 59.8889885,51.7705672 C60.8521808,53.0633953 60.1943538,56.7736453 59.2949692,58.0346453 C54.9454115,64.1062391 53.6115269,65.0034891 46.2113538,69.9792859 L46.2113538,69.9792859 Z M18.2043346,91.1980359 L4.29729615,77.3088484 L8.18196923,73.4333953 L22.0859692,87.3331922 L18.2043346,91.1980359 Z M42.3980846,55.1110047 C41.6870846,54.6244891 40.8621423,53.8454578 40.0189692,52.7163172 C37.8874885,49.8639109 36.9941808,46.7341453 37.3891808,45.4655672 C37.9437,43.6619734 39.3094885,40.8671609 42.3980846,40.7928953 L42.3980846,55.1110047 Z M42.3980846,25.7533484 C36.6842577,26.6975828 28.0535077,32.4736297 24.5395269,37.9768641 C20.3813923,44.4788953 8.28527692,67.7892078 6.94227692,70.3854734 L-0.000607692308,77.3088484 L18.2012962,95.4842234 L25.2277385,88.4880984 C36.4533346,80.1961141 43.3460846,75.5613328 47.9098538,72.4921922 C49.7466038,71.2584734 51.2263346,70.2611922 52.4888154,69.3654578 L78.8216423,69.3654578 L78.8216423,0.888004687 L42.3980846,0.888004687 L42.3980846,25.7533484 Z" id="Fill-1" fill="#D70060" mask="url(#mask-2)"></path>
                        </g>
                        <path d="M60.6045462,45.4716297 C55.2355846,45.4716297 50.8677962,41.1142078 50.8677962,35.7579891 C50.8677962,30.3957078 55.2355846,26.0337391 60.6045462,26.0337391 C65.9780654,26.0337391 70.3504115,30.3957078 70.3504115,35.7579891 C70.3504115,41.1142078 65.9780654,45.4716297 60.6045462,45.4716297 M73.3888731,35.7579891 C73.3888731,28.7239734 67.6537769,23.0024891 60.6045462,23.0024891 C53.5598731,23.0024891 47.8293346,28.7239734 47.8293346,35.7579891 C47.8293346,42.7859422 53.5598731,48.5028797 60.6045462,48.5028797 C67.6537769,48.5028797 73.3888731,42.7859422 73.3888731,35.7579891" id="Fill-4" fill="#D70060"></path>
                        <path d="M68.6011692,35.2249438 L68.5373615,34.9263656 L67.0561115,34.9263656 C66.8798808,34.0730688 66.5365346,33.4001313 66.0336692,32.9196781 C65.4563615,32.3755687 64.72865,32.099725 63.8718038,32.099725 C63.3157654,32.099725 62.8599962,32.1906625 62.4847462,32.3725375 C62.1094962,32.5422875 61.7828615,32.7878188 61.5200346,33.093975 C61.2632846,33.3864906 61.0521115,33.71235 60.8774,34.0867094 C60.7057269,34.4459125 60.5538038,34.8202719 60.4109962,35.2113031 C60.2074192,35.7387406 60.0159962,36.1782719 59.8428038,36.5268656 C59.6878423,36.8451469 59.5222462,37.0967406 59.3536115,37.2740687 C59.1971308,37.4392719 59.0360923,37.5499125 58.8735346,37.6059906 C58.6912269,37.6711625 58.4542269,37.7029906 58.1549385,37.7029906 C57.5867462,37.7029906 57.1112269,37.4998969 56.7450923,37.1028031 C56.3668038,36.682975 56.1753808,35.99185 56.1753808,35.0491313 C56.1753808,34.6853812 56.1890538,34.4353031 56.2224769,34.2291781 C56.2528615,33.9927406 56.2847654,33.7805531 56.3349,33.5683656 C56.3713615,33.3804281 56.4230154,33.2091625 56.4716308,33.0576 L56.5065731,32.9469594 C56.5475923,32.8151 56.5901308,32.6877875 56.6220346,32.5619906 L56.7010346,32.2543187 L56.4123808,32.1224594 C56.2422269,32.0451625 56.0492846,31.9815062 55.8457077,31.9269437 C55.6299769,31.8617719 55.4309577,31.8223656 55.2501692,31.7966 L54.9296115,31.7541625 L54.8339,32.0618344 C54.7169192,32.4468031 54.6029769,32.8545063 54.5103038,33.2894906 C54.4085154,33.7532719 54.3568615,34.3049594 54.3538231,34.9263656 L52.6857077,34.9263656 L52.6173423,35.2203969 C52.5793615,35.3901469 52.5611308,35.5735375 52.5611308,35.7948187 C52.5611308,35.9963969 52.5808808,36.1706938 52.6188615,36.3298344 L52.6917846,36.6178031 L54.5406885,36.6178031 C54.7457846,37.5241469 55.1392654,38.2516469 55.7104962,38.7806 C56.3516115,39.4004906 57.2145346,39.714225 58.2734385,39.714225 C58.8294769,39.714225 59.3156308,39.6202562 59.7182269,39.4338344 C60.10715,39.2489281 60.4565731,38.9943031 60.7619385,38.6699594 C61.0460346,38.3516781 61.29215,37.9727719 61.4911692,37.5483969 C61.6886692,37.1452406 61.88465,36.7041938 62.0791115,36.2282875 C62.2036885,35.8963656 62.3373808,35.5735375 62.4558808,35.2946625 C62.5986885,34.9960844 62.7278231,34.7732875 62.8615154,34.5989906 C62.9982462,34.4201469 63.1440923,34.2867719 63.30665,34.19735 C63.4570538,34.1109594 63.6484769,34.0670062 63.8900346,34.0670062 C64.3503615,34.0670062 64.7134577,34.2200844 64.9990731,34.5307875 C65.2907654,34.8596781 65.43965,35.4341 65.43965,36.2388969 C65.43965,36.6041625 65.4047077,36.9967094 65.3363423,37.4028969 C65.2664577,37.8060531 65.1935346,38.1197875 65.1114962,38.3622875 L64.9914769,38.7260375 L65.3545731,38.8442563 C65.5201692,38.8973031 65.6994385,38.9548969 65.8544,38.9821781 C66.0291115,39.0291625 66.2099,39.0534125 66.4119577,39.0822094 L66.7629,39.0458344 L66.8525346,38.7260375 C66.8783615,38.6244906 66.9133038,38.5002094 66.9391308,38.3744125 C66.9923038,38.1773813 67.0302846,37.9636781 67.0667462,37.7333031 C67.0956115,37.5514281 67.1153615,37.3650063 67.1351115,37.1710062 L67.1533423,37.0088344 C67.1654962,36.8800063 67.1746115,36.7481469 67.1806885,36.6178031 L68.5464769,36.6178031 L68.6042077,36.3071 C68.6376308,36.1237094 68.6528231,35.9403188 68.6528231,35.7584437 C68.6528231,35.5629281 68.6345923,35.3825687 68.6011692,35.2249438" id="Fill-6" fill="#D70060"></path>
                    </g>
                </g>
            </g>
        </g>
    </g>
</svg>